<?xml version="1.0" encoding="UTF-8"?>
<svg id="Layer_1" xmlns="http://www.w3.org/2000/svg" viewBox="0 0 204.8 204.8">
  <defs>
    <style>
      .cls-1 {
        fill: #f52800;
      }
    </style>
  </defs>
  <g id="uGFpyW">
    <path class="cls-1" d="M130.47,108.46c6.26-16.24,11.18-21.95,7.14-34.63,27.34,31.35,10.57,91.55-25.53,99.13,22.71-47.91-20.23-47.6-7.92-74.69-18.62,17.54-15.84,54.12-26.18,25.99-7.79,23.09,2.48,38.09,13.64,48.37-8.3-1.33-17.38-4.32-23.23-10.61-32.78-35.2-.56-54.24-1.45-98.9.13,6.66,15.84,10.55,10.91,25.82,19.68-18.13,6.8-26.75,38.32-70.94-13.75,46.69,18.75,58.97,14.32,90.46Z"/>
  </g>
</svg>