<?xml version="1.0" encoding="UTF-8"?>
<svg id="Layer_1" xmlns="http://www.w3.org/2000/svg" viewBox="0 0 2048 2048">
  <defs>
    <style>
      .cls-1 {
        fill: none;
      }

      .cls-1, .cls-2 {
        stroke-miterlimit: 10;
      }

      .cls-1, .cls-2, .cls-3 {
        stroke: #000;
        stroke-width: 32px;
      }

      .cls-2 {
        fill: #eaeaea;
      }

      .cls-3 {
        fill: #c68b2c;
        stroke-linecap: round;
        stroke-linejoin: round;
      }
    </style>
  </defs>
  <rect class="cls-3" x="1222.62" y="450.43" width="72.46" height="1702.43" transform="translate(-551.69 1271.39) rotate(-45)"/>
  <path class="cls-3" d="M78.58,140.23l301.54,435.16s49.67-26.57,152.13,75.89,103.41,27.18,103.41,27.18c0,0,75.28-.96-27.18-103.41-102.46-102.46-75.89-152.13-75.89-152.13L97.44,121.37c-12.4-8.59-27.45,6.46-18.86,18.86Z"/>
  <path class="cls-2" d="M707.68,663.2c-49.34-80.67-89.16-82.45-129.44-42.17-40.28,40.28-38.5,80.1,42.17,129.44s64.4,84.58,94.38,110.06c36.85,31.32,65.74,37.64,103.97,1.02,36.62-38.23,30.3-67.11-1.02-103.97-25.47-29.98-60.72-13.71-110.06-94.38Z"/>
  <path class="cls-1" d="M564.6,652.68c33.05,8.44,109.12,3.23,119.77-22.67"/>
  <path class="cls-1" d="M588.67,725.76c33.05,8.44,120.49-18.32,131.14-44.22"/>
  <path class="cls-1" d="M646.47,768.38c40.98,18.52,127.88-20.8,177.24-3.46"/>
  <path class="cls-1" d="M695.25,832.35c39.06,4.04,112-18.47,143.7.89"/>
</svg>