<?xml version="1.0" encoding="UTF-8"?>
<svg id="Layer_1" xmlns="http://www.w3.org/2000/svg" viewBox="0 0 2048 2048">
  <defs>
    <style>
      .cls-1 {
        fill: #333;
      }

      .cls-1, .cls-2, .cls-3 {
        stroke: #000;
        stroke-linecap: round;
        stroke-linejoin: round;
        stroke-width: 32px;
      }

      .cls-2 {
        fill: #e6e6e6;
      }

      .cls-3 {
        fill: #dcdcdc;
      }
    </style>
  </defs>
  <polygon class="cls-2" points="1879.57 1811.1 1850.67 1840 1824.21 1866.45 1838.14 1901.88 1895.32 1915.19 1911.81 1898.7 1928.3 1882.2 1914.99 1825.03 1879.57 1811.1"/>
  <g>
    <rect class="cls-1" x="1249.97" y="480.12" width="78.29" height="1591.77" transform="translate(-524.7 1285.27) rotate(-45)"/>
    <polygon class="cls-3" points="869.68 775.25 851.99 838.87 788.37 856.57 414.19 452.45 465.56 401.08 869.68 775.25"/>
    <polygon class="cls-3" points="508.38 395.41 297.77 201.71 118.37 105.26 214.82 284.66 408.53 495.27 406.93 621.29 464.36 586.19 590.85 577.74 599.31 451.25 634.4 393.82 508.38 395.41"/>
    <polygon class="cls-3" points="727.42 585.52 648.42 635.31 598.63 714.3 573.24 781.41 661.81 710.21 729.22 716.11 723.33 648.7 794.52 560.12 727.42 585.52"/>
    <line class="cls-3" x1="143.72" y1="130.6" x2="590.85" y2="577.74"/>
  </g>
</svg>