<?xml version="1.0" encoding="UTF-8"?>
<svg id="Layer_1" xmlns="http://www.w3.org/2000/svg" viewBox="0 0 2048 2048">
  <defs>
    <style>
      .cls-1 {
        fill: none;
      }

      .cls-1, .cls-2, .cls-3, .cls-4 {
        stroke: #000;
        stroke-linecap: round;
        stroke-linejoin: round;
        stroke-width: 24px;
      }

      .cls-2 {
        fill: #333;
      }

      .cls-3 {
        fill: #999;
      }

      .cls-4 {
        fill: #dcdcdc;
      }
    </style>
  </defs>
  <rect class="cls-2" x="952.53" y="627.46" width="142.94" height="59.7"/>
  <path class="cls-4" d="M1899.28,704.47c-69.34-9.73-172.98-125.14-221.12-173.27-48.14-48.14-157.1-284.54-654.16-284.54s-606.02,236.4-654.16,284.54-151.78,163.54-221.12,173.27c-73.71,10.34,68.64,48.62,157.56-40.29,228.64-228.64,238.92-319.06,717.72-319.06s489.08,90.42,717.72,319.06c88.92,88.92,231.27,50.64,157.56,40.29Z"/>
  <path class="cls-3" d="M1076.47,313.61h-104.94v242.24c23.53,26.17,26.96,60.78,26.96,98.74s-3.43,72.57-26.96,98.74v388.23h104.94v-388.23c-23.53-26.17-26.96-60.78-26.96-98.74s3.43-72.57,26.96-98.74v-242.24Z"/>
  <path class="cls-2" d="M1143.88,1885.67l-26.98-511.67-18.34-148.99,29.23-70.15v-65.28c0-10.89-9.89-19.12-20.6-17.13l-83.19,15.44-83.19-15.44c-10.71-1.99-20.6,6.23-20.6,17.13v65.28l29.23,70.15-18.34,148.99-26.98,511.67c-.55,19.61,15.2,35.81,34.83,35.81h170.11c19.62,0,35.37-16.2,34.83-35.81Z"/>
  <polyline class="cls-1" points="148.72 704.47 1024 1087.9 1899.28 704.47"/>
  <polygon class="cls-2" points="1152.08 368.29 1024 346.52 895.92 368.29 895.92 242.31 1024 220.54 1152.08 242.31 1152.08 368.29"/>
</svg>