<?xml version="1.0" encoding="UTF-8"?>
<svg id="Layer_1" xmlns="http://www.w3.org/2000/svg" viewBox="0 0 2048 2048">
  <defs>
    <style>
      .cls-1, .cls-2 {
        fill: #333;
      }

      .cls-1, .cls-2, .cls-3, .cls-4 {
        stroke: #000;
        stroke-linecap: round;
        stroke-linejoin: round;
      }

      .cls-1, .cls-3, .cls-4 {
        stroke-width: 32px;
      }

      .cls-2 {
        stroke-width: 24px;
      }

      .cls-3 {
        fill: #dcdcdc;
      }

      .cls-4 {
        fill: #666;
      }
    </style>
  </defs>
  <polygon class="cls-3" points="309.78 436.65 362.86 361.31 435.63 357.89 435.63 452.92 309.78 436.65"/>
  <rect class="cls-1" x="1406.03" y="891.66" width="296.37" height="809.72" transform="translate(-262.74 404.76) rotate(-13.69)"/>
  <path class="cls-4" d="M1237,629.35l-345.64,110.67,69.22,290.72,90.07,62.84h327.02l54.15-277.96-194.82-186.27ZM1324.93,1029.59h-254.17l-53.57-37.38-49.84-209.31,252.92-80.98,142.03,135.8-37.38,191.87Z"/>
  <polygon class="cls-4" points="259.21 643.29 259.21 780.51 340.47 780.51 340.47 851.11 1194.42 833.8 1242.38 872.43 1403.58 1537.2 1363.61 1594.49 1430.22 1666.43 1539.46 1666.43 1831.22 1522.55 1797.91 1477.25 1673.68 928.38 1767.58 827.13 1767.58 744.54 1721.98 682.04 1725.97 568.69 259.21 643.29"/>
  <polygon class="cls-3" points="216.78 433.56 1510.23 409.15 1541.29 340.38 1607.84 340.38 1607.84 409.15 1698.81 406.93 1767.58 482.37 1767.58 630.26 216.78 682.04 216.78 433.56"/>
  <polygon class="cls-2" points="1095.91 835.79 1139.8 897.94 1109.94 984.65 1154.73 984.65 1184.6 914.8 1164.83 834.4 1095.91 835.79"/>
</svg>