<?xml version="1.0" encoding="UTF-8"?>
<svg id="Layer_1" xmlns="http://www.w3.org/2000/svg" viewBox="0 0 2048 2048">
  <defs>
    <style>
      .cls-1 {
        fill: none;
      }

      .cls-1, .cls-2, .cls-3, .cls-4 {
        stroke: #000;
        stroke-linecap: round;
        stroke-linejoin: round;
        stroke-width: 24px;
      }

      .cls-2 {
        fill: #333;
      }

      .cls-3 {
        fill: #999;
      }

      .cls-4 {
        fill: #282828;
      }
    </style>
  </defs>
  <line class="cls-2" x1="1856.55" y1="272.37" x2="168.7" y2="1752.89"/>
  <line class="cls-2" x1="1752.89" y1="168.7" x2="272.37" y2="1856.55"/>
  <rect class="cls-2" x="852.16" y="813.83" width="399.08" height="43.93" transform="translate(899.03 -498.87) rotate(45)"/>
  <path class="cls-4" d="M1908.38,116.87c-57.25-57.25-150.07-57.25-207.32,0-57.25,57.25-57.25,150.07,0,207.32,38.37,38.37,92.71,51.02,141.62,37.96,60.21-1.39-8.61,127.61,53.28,65.71,95.43-95.46,107.91-215.51,12.42-310.99ZM1752.89,272.37c-28.63-28.63-28.63-75.04,0-103.66,28.63-28.63,75.04-28.63,103.66,0,28.63,28.63,28.63,75.04,0,103.66-28.63,28.63-75.04,28.63-103.66,0Z"/>
  <path class="cls-4" d="M362.16,1842.68c13.06-48.91.41-103.25-37.96-141.62-57.25-57.25-150.07-57.25-207.32,0-57.25,57.25-57.25,150.07,0,207.32,95.48,95.48,215.54,83.01,310.99-12.42,61.9-61.89-67.11,6.94-65.71-53.28ZM168.7,1752.89c28.63-28.63,75.04-28.63,103.66,0s28.63,75.04,0,103.66c-28.63,28.63-75.04,28.63-103.66,0-28.63-28.63-28.63-75.04,0-103.66Z"/>
  <line class="cls-1" x1="1881.81" y1="442.01" x2="427.87" y2="1895.95"/>
  <polygon class="cls-2" points="842.6 883.32 835.16 904.59 754.49 854.19 641.15 1079.25 623.87 1071.61 605.78 906.43 709.62 750.34 842.6 883.32"/>
  <path class="cls-2" d="M229.78,1247.64l-10.22,262.11c-1.63,41.75.71,83.55,6.98,124.85l10.03,101.26c.52,5.2.58,10.44.19,15.65l-8.63,114.73-55.26-221.03c-10.84-43.34-15.37-88.02-13.46-132.66l11.52-269.73,58.85,4.83Z"/>
  <path class="cls-2" d="M1247.28,230.14l262.11-10.22c41.75-1.63,83.55.71,124.85,6.98l101.26,10.03c5.2.52,10.44.58,15.65.19l114.73-8.63-221.03-55.26c-43.34-10.84-88.02-15.37-132.66-13.46l-269.73,11.52,4.83,58.85Z"/>
  <path class="cls-3" d="M641.15,1079.25l-31.17-134.48-146.1,51.32-49.26,62.17-166.18,20.17-32.51-36.74-32.8,42.6-52.38,5.94-12.67,16.46,25.53,48.96-.95,109.46,35.34,27.21,90.01,7.38,64.98-77.19,77.8,14.41,48.03-86.45,99.41-13.99,82.92-57.23ZM325.88,1182.15l-60.8,67.71v-71.87l16.49,1.83,15.99-22.65-24.65-24.65,19.66-19.66,90.61-15.32.67,99.94-57.97-15.32ZM547.04,1100.49l-94.62,13.21,38.18-81.87,82.12-27.15,17.87,65.8-43.56,30Z"/>
  <path class="cls-3" d="M842.6,883.32l246.53-277.54,31.54-84.1,23.13-35.74,34.69-118.79,73.59-113.53-18.92-88.3-31.54-31.54-108.42,15.05-51.85-19.01-14.69,14.69.86,52.71-38.02,38.02,32.84,36.29-26.79,234.17-96.77,126.17-168.51,139.11,112.33,112.33ZM1053.25,593.45l-75.33,86.29-42.44-42.02,69.85-91.77,47.91,47.5ZM1065.23,265.15l28.41,28.41,26.75-6.02-3.81-40.44,54.2-4.15,22.86,22.86-74.98,124.95-63.49-40.69,10.05-84.93ZM1040.01,431.36l71.84,35.31-23.13,34.09-6.09,21.92-54.18-18.87,11.57-72.44Z"/>
  <rect class="cls-2" x="1051.3" y="853.35" width="125.11" height="89.18" transform="translate(961.18 -524.61) rotate(45)"/>
</svg>