<?xml version="1.0" encoding="UTF-8"?>
<svg id="Layer_1" xmlns="http://www.w3.org/2000/svg" viewBox="0 0 2048 2048">
  <defs>
    <style>
      .cls-1 {
        fill: #ffe41f;
      }

      .cls-2 {
        fill: #1e1e1e;
      }

      .cls-3 {
        stroke-width: 27.04px;
      }

      .cls-3, .cls-4 {
        fill: #333;
      }

      .cls-3, .cls-4, .cls-5, .cls-6 {
        stroke: #000;
        stroke-linecap: round;
        stroke-linejoin: round;
      }

      .cls-4 {
        stroke-width: 28.3px;
      }

      .cls-5 {
        stroke-width: 24px;
      }

      .cls-5, .cls-6 {
        fill: #dbdbdb;
      }

      .cls-6 {
        stroke-width: 32px;
      }
    </style>
  </defs>
  <polygon class="cls-5" points="176.52 1725.11 47.58 2004.1 326.57 1875.15 1552.92 667.19 1427.25 624.43 1384.49 498.76 176.52 1725.11"/>
  <polygon class="cls-2" points="222.39 1742.69 133.11 1918.57 308.99 1829.29 1530.58 616.57 1427.25 624.43 1435.11 521.1 222.39 1742.69"/>
  <g>
    <rect class="cls-1" x="579.69" y="1414.97" width="88.85" height="25.19" transform="translate(55.98 2878.32) rotate(-135)"/>
    <rect class="cls-1" x="624.7" y="1369.96" width="88.85" height="25.19" transform="translate(164.65 2833.31) rotate(-135)"/>
    <rect class="cls-1" x="624.7" y="1414.97" width="88.85" height="25.19" transform="translate(-813.46 891.27) rotate(-45)"/>
    <rect class="cls-1" x="624.7" y="1324.95" width="88.85" height="25.19" transform="translate(-749.8 864.9) rotate(-45)"/>
    <rect class="cls-1" x="669.71" y="1324.95" width="88.85" height="25.19" transform="translate(273.32 2788.3) rotate(-135)"/>
    <rect class="cls-1" x="714.73" y="1279.93" width="88.85" height="25.19" transform="translate(382 2743.28) rotate(-135)"/>
    <rect class="cls-1" x="714.73" y="1324.95" width="88.85" height="25.19" transform="translate(-723.43 928.56) rotate(-45)"/>
    <rect class="cls-1" x="714.73" y="1234.92" width="88.85" height="25.19" transform="translate(-659.78 902.19) rotate(-45)"/>
    <rect class="cls-1" x="759.74" y="1234.92" width="88.85" height="25.19" transform="translate(490.67 2698.27) rotate(-135)"/>
    <rect class="cls-1" x="804.75" y="1189.91" width="88.85" height="25.19" transform="translate(599.34 2653.26) rotate(-135)"/>
    <rect class="cls-1" x="804.75" y="1234.92" width="88.85" height="25.19" transform="translate(-633.41 965.85) rotate(-45)"/>
    <rect class="cls-1" x="804.75" y="1144.9" width="88.85" height="25.19" transform="translate(-569.75 939.48) rotate(-45)"/>
    <rect class="cls-1" x="849.77" y="1144.9" width="88.85" height="25.19" transform="translate(708.01 2608.25) rotate(-135)"/>
    <rect class="cls-1" x="894.78" y="1099.88" width="88.85" height="25.19" transform="translate(816.68 2563.23) rotate(-135)"/>
    <rect class="cls-1" x="894.78" y="1144.9" width="88.85" height="25.19" transform="translate(-543.38 1003.14) rotate(-45)"/>
    <rect class="cls-1" x="894.78" y="1054.87" width="88.85" height="25.19" transform="translate(-479.73 976.77) rotate(-45)"/>
    <rect class="cls-1" x="939.79" y="1054.87" width="88.85" height="25.19" transform="translate(925.35 2518.22) rotate(-135)"/>
    <rect class="cls-1" x="984.8" y="1009.86" width="88.85" height="25.19" transform="translate(1034.02 2473.21) rotate(-135)"/>
    <rect class="cls-1" x="984.8" y="1054.87" width="88.85" height="25.19" transform="translate(-453.36 1040.43) rotate(-45)"/>
    <rect class="cls-1" x="984.8" y="964.84" width="88.85" height="25.19" transform="translate(-389.7 1014.06) rotate(-45)"/>
    <rect class="cls-1" x="1029.82" y="964.84" width="88.85" height="25.19" transform="translate(1142.69 2428.19) rotate(-135)"/>
    <rect class="cls-1" x="1074.83" y="919.83" width="88.85" height="25.19" transform="translate(1251.36 2383.18) rotate(-135)"/>
    <rect class="cls-1" x="1074.83" y="964.84" width="88.85" height="25.19" transform="translate(-363.33 1077.72) rotate(-45)"/>
    <rect class="cls-1" x="1074.83" y="874.82" width="88.85" height="25.19" transform="translate(-299.67 1051.35) rotate(-45)"/>
    <rect class="cls-1" x="1119.84" y="874.82" width="88.85" height="25.19" transform="translate(1360.03 2338.17) rotate(-135)"/>
    <rect class="cls-1" x="1164.85" y="829.81" width="88.85" height="25.19" transform="translate(1468.7 2293.15) rotate(-135)"/>
    <rect class="cls-1" x="1164.85" y="874.82" width="88.85" height="25.19" transform="translate(-273.31 1115.01) rotate(-45)"/>
    <rect class="cls-1" x="1164.85" y="784.79" width="88.85" height="25.19" transform="translate(-209.65 1088.64) rotate(-45)"/>
    <rect class="cls-1" x="1209.87" y="784.79" width="88.85" height="25.19" transform="translate(1577.37 2248.14) rotate(-135)"/>
    <rect class="cls-1" x="1254.88" y="739.78" width="88.85" height="25.19" transform="translate(1686.04 2203.13) rotate(-135)"/>
    <rect class="cls-1" x="1254.88" y="784.79" width="88.85" height="25.19" transform="translate(-183.28 1152.3) rotate(-45)"/>
    <rect class="cls-1" x="1254.88" y="694.77" width="88.85" height="25.19" transform="translate(-119.62 1125.93) rotate(-45)"/>
    <rect class="cls-1" x="1299.89" y="694.77" width="88.85" height="25.19" transform="translate(1794.71 2158.12) rotate(-135)"/>
    <rect class="cls-1" x="1344.91" y="649.75" width="88.85" height="25.19" transform="translate(1903.38 2113.1) rotate(-135)"/>
    <rect class="cls-1" x="1344.91" y="694.77" width="88.85" height="25.19" transform="translate(-93.25 1189.59) rotate(-45)"/>
    <rect class="cls-1" x="1344.91" y="604.74" width="88.85" height="25.19" transform="translate(-29.6 1163.22) rotate(-45)"/>
  </g>
  <g>
    <rect class="cls-1" x="219.59" y="1775.08" width="88.85" height="25.19" transform="translate(-813.38 3238.43) rotate(-135)"/>
    <rect class="cls-1" x="264.6" y="1730.06" width="88.85" height="25.19" transform="translate(-704.71 3193.41) rotate(-135)"/>
    <rect class="cls-1" x="264.6" y="1775.08" width="88.85" height="25.19" transform="translate(-1173.56 742.11) rotate(-45)"/>
    <rect class="cls-1" x="264.6" y="1685.05" width="88.85" height="25.19" transform="translate(-1109.91 715.74) rotate(-45)"/>
    <rect class="cls-1" x="309.61" y="1685.05" width="88.85" height="25.19" transform="translate(-596.04 3148.4) rotate(-135)"/>
    <rect class="cls-1" x="354.62" y="1640.04" width="88.85" height="25.19" transform="translate(-487.37 3103.39) rotate(-135)"/>
    <rect class="cls-1" x="354.62" y="1685.05" width="88.85" height="25.19" transform="translate(-1083.54 779.4) rotate(-45)"/>
    <rect class="cls-1" x="354.62" y="1595.02" width="88.85" height="25.19" transform="translate(-1019.88 753.03) rotate(-45)"/>
    <rect class="cls-1" x="399.64" y="1595.02" width="88.85" height="25.19" transform="translate(-378.7 3058.37) rotate(-135)"/>
    <rect class="cls-1" x="444.65" y="1550.01" width="88.85" height="25.19" transform="translate(-270.03 3013.36) rotate(-135)"/>
    <rect class="cls-1" x="444.65" y="1595.02" width="88.85" height="25.19" transform="translate(-993.51 816.69) rotate(-45)"/>
    <rect class="cls-1" x="444.65" y="1505" width="88.85" height="25.19" transform="translate(-929.85 790.32) rotate(-45)"/>
    <rect class="cls-1" x="489.66" y="1505" width="88.85" height="25.19" transform="translate(-161.36 2968.35) rotate(-135)"/>
    <rect class="cls-1" x="534.68" y="1459.99" width="88.85" height="25.19" transform="translate(-52.69 2923.34) rotate(-135)"/>
    <rect class="cls-1" x="534.68" y="1505" width="88.85" height="25.19" transform="translate(-903.49 853.98) rotate(-45)"/>
    <rect class="cls-1" x="534.68" y="1414.97" width="88.85" height="25.19" transform="translate(-839.83 827.61) rotate(-45)"/>
    <rect class="cls-1" x="579.69" y="1414.97" width="88.85" height="25.19" transform="translate(55.98 2878.32) rotate(-135)"/>
    <rect class="cls-1" x="624.7" y="1369.96" width="88.85" height="25.19" transform="translate(164.65 2833.31) rotate(-135)"/>
    <rect class="cls-1" x="624.7" y="1414.97" width="88.85" height="25.19" transform="translate(-813.46 891.27) rotate(-45)"/>
    <rect class="cls-1" x="624.7" y="1324.95" width="88.85" height="25.19" transform="translate(-749.8 864.9) rotate(-45)"/>
    <rect class="cls-1" x="669.71" y="1324.95" width="88.85" height="25.19" transform="translate(273.32 2788.3) rotate(-135)"/>
    <rect class="cls-1" x="714.73" y="1279.93" width="88.85" height="25.19" transform="translate(382 2743.28) rotate(-135)"/>
    <rect class="cls-1" x="714.73" y="1324.95" width="88.85" height="25.19" transform="translate(-723.43 928.56) rotate(-45)"/>
    <rect class="cls-1" x="714.73" y="1234.92" width="88.85" height="25.19" transform="translate(-659.78 902.19) rotate(-45)"/>
    <rect class="cls-1" x="759.74" y="1234.92" width="88.85" height="25.19" transform="translate(490.67 2698.27) rotate(-135)"/>
    <rect class="cls-1" x="804.75" y="1189.91" width="88.85" height="25.19" transform="translate(599.34 2653.26) rotate(-135)"/>
    <rect class="cls-1" x="804.75" y="1234.92" width="88.85" height="25.19" transform="translate(-633.41 965.85) rotate(-45)"/>
    <rect class="cls-1" x="804.75" y="1144.9" width="88.85" height="25.19" transform="translate(-569.75 939.48) rotate(-45)"/>
    <rect class="cls-1" x="849.77" y="1144.9" width="88.85" height="25.19" transform="translate(708.01 2608.25) rotate(-135)"/>
    <rect class="cls-1" x="894.78" y="1099.88" width="88.85" height="25.19" transform="translate(816.68 2563.23) rotate(-135)"/>
    <rect class="cls-1" x="894.78" y="1144.9" width="88.85" height="25.19" transform="translate(-543.38 1003.14) rotate(-45)"/>
    <rect class="cls-1" x="894.78" y="1054.87" width="88.85" height="25.19" transform="translate(-479.73 976.77) rotate(-45)"/>
    <rect class="cls-1" x="939.79" y="1054.87" width="88.85" height="25.19" transform="translate(925.35 2518.22) rotate(-135)"/>
    <rect class="cls-1" x="984.8" y="1009.86" width="88.85" height="25.19" transform="translate(1034.02 2473.21) rotate(-135)"/>
    <rect class="cls-1" x="984.8" y="1054.87" width="88.85" height="25.19" transform="translate(-453.36 1040.43) rotate(-45)"/>
    <rect class="cls-1" x="984.8" y="964.84" width="88.85" height="25.19" transform="translate(-389.7 1014.06) rotate(-45)"/>
  </g>
  <rect class="cls-4" x="1623.16" y="52.94" width="154.58" height="581.88" transform="translate(2659.69 1789.43) rotate(-135)"/>
  <polygon class="cls-3" points="1402.87 648.8 1553.08 711.77 1639.49 790.39 1694.32 712.13 1634.52 617.97 1510.71 540.97 1402.87 648.8"/>
  <polygon class="cls-3" points="1402.87 648.8 1339.91 498.6 1261.29 412.19 1339.54 357.36 1433.7 417.16 1510.71 540.97 1402.87 648.8"/>
  <rect class="cls-6" x="1804.87" y="106.55" width="203.15" height="62.67" transform="translate(3157 1583.43) rotate(-135)"/>
  <rect class="cls-6" x="1649.11" y="262.3" width="203.15" height="62.67" transform="translate(2780.97 1739.19) rotate(-135)"/>
  <rect class="cls-6" x="1493.35" y="418.06" width="203.15" height="62.67" transform="translate(2404.94 1894.95) rotate(-135)"/>
  <polygon class="cls-1" points="159.74 1892.98 191.2 1875.39 244.57 1775.95 223.69 1765.16 159.74 1892.98"/>
</svg>