<?xml version="1.0" encoding="UTF-8"?>
<svg id="Layer_1" xmlns="http://www.w3.org/2000/svg" viewBox="0 0 2048 2048">
  <defs>
    <style>
      .cls-1 {
        fill: #c1c1c1;
      }

      .cls-1, .cls-2, .cls-3, .cls-4, .cls-5 {
        stroke: #000;
        stroke-linecap: round;
        stroke-linejoin: round;
        stroke-width: 24px;
      }

      .cls-2 {
        fill: #333;
      }

      .cls-3 {
        fill: #e8e8e8;
      }

      .cls-4 {
        fill: #757575;
      }

      .cls-5 {
        fill: #919191;
      }
    </style>
  </defs>
  <rect class="cls-5" x="67.95" y="73.7" width="87.76" height="87.76"/>
  <polygon class="cls-5" points="155.71 161.46 97.95 131.46 67.95 73.7 125.71 103.7 155.71 161.46"/>
  <rect class="cls-4" x="1338.83" y="639.85" width="64.6" height="1474.07" transform="translate(-572.01 1372.82) rotate(-45)"/>
  <g>
    <path class="cls-4" d="M839.98,845.74c-50.6-50.6,27.68-103.44-23.94-145.38-204.51-166.19-192.86-531.17-192.86-531.17l-96.46-72.8s-51.43,70.9-285.24,37.07c-43.08-6.23-37.73,37.94-89.88,23.91l688.38,688.38Z"/>
    <path class="cls-1" d="M435.94,160.37c-50.93,9.42-192.9,13.22-225-14.43-13.98-12.04-33.64,11.97,61.42,55.82,95.06,43.85,163.58-41.39,163.58-41.39Z"/>
    <path class="cls-1" d="M553.65,260.34c16.3,84.54,7.32,215.03,260.3,507.14-196.78-133.89-377.22-431.92-377.22-431.92l116.92-75.22Z"/>
    <path class="cls-5" d="M839.98,845.74c-50.61-50.6,15.1-45.55-36.35-87.6-270.43-221.08-284.3-446.23-284.3-446.23l-144.65-121.13s-35.69,24.45-154.87-26.66c-40.01-17.16-16.07,7.27-68.22-6.77l688.38,688.38Z"/>
    <polygon class="cls-1" points="553.65 260.34 519.33 311.9 374.68 190.78 435.94 160.37 553.65 260.34"/>
    <path class="cls-4" d="M839.98,845.74c-50.6-50.6-103.44,27.68-145.38-23.94-166.19-204.51-531.17-192.86-531.17-192.86l-72.8-96.46s70.9-51.43,37.07-285.24c-6.23-43.08,37.94-37.73,23.91-89.88l688.38,688.38Z"/>
    <path class="cls-1" d="M154.61,441.69c9.42-50.93,13.22-192.9-14.43-225-12.04-13.98,11.97-33.64,55.82,61.42,43.85,95.06-41.39,163.58-41.39,163.58Z"/>
    <path class="cls-1" d="M254.58,559.41c84.54,16.3,215.03,7.32,507.14,260.3-133.89-196.78-431.92-377.22-431.92-377.22l-75.22,116.92Z"/>
    <path class="cls-5" d="M839.98,845.74c-50.6-50.61-45.55,15.1-87.6-36.35-221.08-270.43-446.23-284.3-446.23-284.3l-121.13-144.65s24.45-35.69-26.66-154.87c-17.16-40.01,7.27-16.07-6.77-68.22l688.38,688.38Z"/>
    <polygon class="cls-1" points="254.58 559.41 306.15 525.09 185.02 380.44 154.61 441.69 254.58 559.41"/>
  </g>
  <rect class="cls-5" x="799.3" y="819.16" width="101.34" height="73.13" transform="translate(-356.14 851.65) rotate(-45)"/>
  <rect class="cls-5" x="736.33" y="788.81" width="148.87" height="55.43" transform="translate(-339.9 812.46) rotate(-45)"/>
  <polygon class="cls-1" points="302.91 251.83 246.07 308.67 180.88 212.59 207.82 185.65 302.91 251.83"/>
  <polygon class="cls-1" points="804.64 783.46 777.7 810.4 378.89 452.35 446.59 384.65 804.64 783.46"/>
  <polygon class="cls-3" points="446.59 384.65 378.89 452.35 245.58 309.16 302.42 252.32 446.59 384.65"/>
  <polygon class="cls-5" points="271.34 122.14 116.38 277.09 77.28 204.93 199.18 83.04 271.34 122.14"/>
  <rect class="cls-2" x="1726.83" y="1614.41" width="79.13" height="315.48" transform="translate(-735.73 1768.08) rotate(-45)"/>
  <rect class="cls-5" x="1892.29" y="1898.05" width="87.76" height="87.76"/>
  <polygon class="cls-5" points="1980.05 1985.81 1922.29 1955.81 1892.29 1898.05 1950.05 1928.05 1980.05 1985.81"/>
  <rect class="cls-5" x="1841.62" y="1861.49" width="101.34" height="73.13" transform="translate(-787.88 1893.98) rotate(-45)"/>
  <rect class="cls-1" x="946.07" y="985.96" width="101.34" height="33.08" transform="translate(-416.94 998.43) rotate(-45)"/>
  <rect class="cls-1" x="1078.69" y="1118.57" width="101.34" height="33.08" transform="translate(-471.87 1131.04) rotate(-45)"/>
  <rect class="cls-1" x="1211.3" y="1251.19" width="101.34" height="33.08" transform="translate(-526.8 1263.66) rotate(-45)"/>
  <rect class="cls-1" x="1343.92" y="1383.81" width="101.34" height="33.08" transform="translate(-581.73 1396.28) rotate(-45)"/>
  <rect class="cls-1" x="1476.54" y="1516.42" width="101.34" height="33.08" transform="translate(-636.66 1528.89) rotate(-45)"/>
</svg>