<?xml version="1.0" encoding="UTF-8"?>
<svg id="Layer_1" xmlns="http://www.w3.org/2000/svg" viewBox="0 0 2048 2048">
  <defs>
    <style>
      .cls-1 {
        fill: #c1c1c1;
      }

      .cls-1, .cls-2, .cls-3, .cls-4, .cls-5, .cls-6 {
        stroke: #000;
        stroke-linecap: round;
        stroke-linejoin: round;
      }

      .cls-1, .cls-3, .cls-4, .cls-5, .cls-6 {
        stroke-width: 24px;
      }

      .cls-2 {
        fill: #333;
        stroke-width: 32px;
      }

      .cls-3 {
        fill: #604113;
      }

      .cls-4 {
        fill: #82571e;
      }

      .cls-5 {
        fill: #dcdcdc;
      }

      .cls-6 {
        fill: #919191;
      }
    </style>
  </defs>
  <polygon class="cls-3" points="1617.08 1654.67 1714.02 1651.3 1371.58 1308.87 1304.58 1375.87 1534.65 1562.17 1617.08 1654.67"/>
  <polygon class="cls-6" points="1309.27 1425.35 1477.72 1334.46 1561.62 1474 1453.09 1517.36 1309.27 1425.35"/>
  <path class="cls-6" d="M1613.2,1339.4c-113.47-32.93-254.16-120.81-345.58-195.66L492.41,509.04l645.01,764.55c76.13,90.24,40.59,125.43,73.5,238.82"/>
  <path class="cls-6" d="M1210.92,1512.42c217.99-63.1,292.02-5.19,402.28-173.02"/>
  <path class="cls-1" d="M1374.04,1406.7c176.53-80.24,188.93-201.89,188.93-201.89-157.93-45.83-282.68-121.67-409.92-225.84L74.15,95.62l804.17,926.83c105.96,125.59,219.88,326.6,273.07,482.08,103.08-62.92,151.65-65.56,222.64-97.83Z"/>
  <polygon class="cls-5" points="973.72 1191.73 1121.06 929.53 1178.64 972.01 1021.43 1251.79 973.72 1191.73"/>
  <polygon class="cls-5" points="775.89 936.37 887.05 738.56 932.87 772.38 813.86 984.17 775.89 936.37"/>
  <polygon class="cls-5" points="570.02 685.87 649.75 543.98 683.92 569.19 598.33 721.51 570.02 685.87"/>
  <polygon class="cls-4" points="1807.24 1855.35 1862.65 1799.94 1719.81 1657.1 1587.22 1653.97 1807.24 1855.35"/>
  <polygon class="cls-2" points="1686.42 1757.71 1747.47 1665.33 1927.64 1845.49 1893.29 1897.58 1824.12 1895.41 1686.42 1757.71"/>
</svg>