<?xml version="1.0" encoding="UTF-8"?>
<svg id="Layer_1" xmlns="http://www.w3.org/2000/svg" viewBox="0 0 2048 2048">
  <defs>
    <style>
      .cls-1 {
        fill: none;
      }

      .cls-1, .cls-2, .cls-3 {
        stroke: #000;
        stroke-linecap: round;
        stroke-linejoin: round;
        stroke-width: 32px;
      }

      .cls-2 {
        fill: #333;
      }

      .cls-3 {
        fill: #dcdcdc;
      }
    </style>
  </defs>
  <path class="cls-2" d="M1505.61,1380.62l254.28,291.42,80.47,26.82,24.57,29.4c9.45,11.31,7.5,28.24-4.28,37.11l-185.72,139.71c-11.24,8.46-27.19,6.33-35.82-4.77l-32.58-41.89,10.11-79.67c-2.57-56.05-22.23-109.97-56.35-154.52l-132.39-165.9,77.72-77.72Z"/>
  <polygon class="cls-2" points="1049.17 1096.41 891.98 1253.61 731.45 1358.38 796.45 1497.85 1000.78 1362.41 1023.03 1340.16 1157.98 1205.22 1049.17 1096.41"/>
  <rect class="cls-3" x="144.03" y="199.37" width="201.15" height="64.81" transform="translate(235.53 -105.07) rotate(45)"/>
  <rect class="cls-3" x="704.77" y="641.88" width="155.58" height="143.88" transform="translate(733.95 -344.28) rotate(45)"/>
  <path class="cls-2" d="M722.1,765.61h378.57c28.44,0,51.52,23.09,51.52,51.52v109.63c0,18.96-15.39,34.35-34.35,34.35h-395.74v-195.5h0Z" transform="translate(884.97 -409.79) rotate(45)"/>
  <rect class="cls-2" x="235.08" y="474.59" width="542.89" height="42.76" transform="translate(499.06 -212.9) rotate(45)"/>
  <rect class="cls-2" x="453.92" y="482.64" width="354.92" height="42.76" transform="translate(541.32 -298.83) rotate(45)"/>
  <polygon class="cls-3" points="509.64 581.54 450.55 522.44 588.66 384.33 689.66 401.51 509.64 581.54"/>
  <path class="cls-3" d="M1155.56,949.06l-157.39,157.39,120.84,185.62,55.61-16.5,73.95,70.28-40.95,51.95-80.06,214.51,127.73,44.61,39.72-193.73,83.11-24.45,61.72,53.17,101.45-101.45,4.54-52.21-46.45-46.45,40.07-101.19-70.89-70.89-80.92,16.72c-22.58,4.66-45.99-2.31-62.34-18.57l-169.76-168.82Z"/>
  <line class="cls-1" x1="1248.57" y1="1345.86" x2="1378.13" y2="1438.75"/>
  <line class="cls-1" x1="1116.5" y1="988.12" x2="1530.08" y2="1401.7"/>
</svg>