<?xml version="1.0" encoding="UTF-8"?>
<svg id="Layer_1" xmlns="http://www.w3.org/2000/svg" viewBox="0 0 204.8 204.8">
  <defs>
    <style>
      .cls-1 {
        fill: #f8a400;
      }
    </style>
  </defs>
  <path class="cls-1" d="M102.95,51.92c2.93,9.77,7.15,18.68,12.53,26.3,6.81,9.63,15.2,16.77,24.59,21.09-9.39,4.32-17.79,11.46-24.59,21.09-5.38,7.61-9.6,16.52-12.53,26.3-2.93-9.77-7.15-18.68-12.53-26.3-6.81-9.63-15.2-16.77-24.59-21.09,9.39-4.32,17.79-11.46,24.59-21.09,5.38-7.61,9.6-16.52,12.53-26.3M102.95,17.79c0,45.02-24.17,81.51-59.23,81.51,35.05,0,59.23,36.49,59.23,81.51,0-45.02,24.17-81.51,59.23-81.51-35.05,0-59.23-36.49-59.23-81.51h0Z"/>
  <path class="cls-1" d="M121.79,123.49c-25.7,0-43.42,31.82-43.42,71.06,0-39.25-17.72-71.06-43.42-71.06,25.7,0,43.42-31.82,43.42-71.06,0,39.25,17.72,71.06,43.42,71.06Z"/>
  <path class="cls-1" d="M152.74,73.49c-7.62,0-12.87,9.43-12.87,21.06,0-11.63-5.25-21.06-12.87-21.06,7.62,0,12.87-9.43,12.87-21.06,0,11.63,5.25,21.06,12.87,21.06Z"/>
</svg>