<?xml version="1.0" encoding="UTF-8"?>
<svg id="Layer_1" xmlns="http://www.w3.org/2000/svg" viewBox="0 0 204.8 204.8">
  <defs>
    <style>
      .cls-1 {
        fill: #4900c8;
      }
    </style>
  </defs>
  <path class="cls-1" d="M159.73,103.7c-21.73,0-36.72,26.9-36.72,60.09,0-33.18-14.99-60.09-36.72-60.09,21.73,0,36.72-26.9,36.72-60.09,0,33.18,14.99,60.09,36.72,60.09Z"/>
  <path class="cls-1" d="M84.66,120.14c-25.3-25.3-29.26-63.87-11.87-93.32-5.46,3.22-10.6,7.18-15.29,11.87-29.99,29.99-29.99,78.62,0,108.61,29.99,29.99,78.62,29.99,108.61,0,4.69-4.69,8.64-9.83,11.87-15.29-29.45,17.39-68.02,13.44-93.32-11.87Z"/>
</svg>