<?xml version="1.0" encoding="UTF-8"?>
<svg id="Layer_1" xmlns="http://www.w3.org/2000/svg" viewBox="0 0 2048 2048">
  <defs>
    <style>
      .cls-1 {
        fill: #e8c087;
      }

      .cls-1, .cls-2, .cls-3 {
        stroke: #000;
        stroke-width: 32px;
      }

      .cls-1, .cls-3 {
        stroke-linecap: round;
        stroke-linejoin: round;
      }

      .cls-2 {
        fill: #eaeaea;
        stroke-miterlimit: 10;
      }

      .cls-3 {
        fill: #c68b2c;
      }
    </style>
  </defs>
  <polygon class="cls-3" points="1398.61 647.94 110 1936.55 424.66 1871.56 902.25 1381.48 1093.76 1105.2 1222.21 1098.67 1401.53 924.89 1466.45 685.24 1398.61 647.94"/>
  <polygon class="cls-1" points="1297.33 463.75 967.35 844.54 856.95 1087.91 634.14 1178.9 432.52 1387.11 110 1936.55 1398.61 647.94 1297.33 463.75"/>
  <rect class="cls-3" x="1578.54" y="162.78" width="154.58" height="455.89" transform="translate(2550.4 1837.85) rotate(-135)"/>
  <polygon class="cls-2" points="1762.36 174.89 1817.01 229.54 1871.66 284.19 1920.6 277.7 1927.41 184.26 1894.85 151.7 1862.29 119.14 1768.85 125.95 1762.36 174.89"/>
  <polygon class="cls-1" points="1605.57 641.18 1505.47 541.08 1405.37 440.98 1336.18 385.36 1310.49 434 1186.93 393.87 1199.72 427.66 1361.79 684.76 1618.89 846.83 1837.3 929.48 1605.57 641.18"/>
</svg>