<?xml version="1.0" encoding="UTF-8"?>
<svg id="Layer_1" xmlns="http://www.w3.org/2000/svg" viewBox="0 0 2048 2048">
  <defs>
    <style>
      .cls-1 {
        fill: #e8c087;
      }

      .cls-1, .cls-2 {
        stroke: #000;
        stroke-linecap: round;
        stroke-linejoin: round;
        stroke-width: 32px;
      }

      .cls-2 {
        fill: #c68b2c;
      }
    </style>
  </defs>
  <path class="cls-2" d="M336.97,806.75l1115.39,1115.39c36.3,36.3,95.15,36.3,131.44,0,36.3-36.3,36.3-95.15,0-131.44L468.41,675.31l-131.44,131.44Z"/>
  <path class="cls-2" d="M601.7,254.98c108.1,95.27,108.78,379.04-44.82,532.65l-156.84,156.84c-19.53,19.53-19.53,51.18,0,70.71l189.08,189.08c19.53,19.53,51.18,19.53,70.71,0l156.84-156.84c153.61-153.61,437.39-152.93,532.66-44.83,124.5-124.5,28.32-422.53-148.38-599.24-176.71-176.71-474.74-272.88-599.24-148.38Z"/>
  <path class="cls-1" d="M601.7,254.98c27.27,24.03,47.69,60.07,60.54,102.97,115.51-28.4,297.21,48.58,415.43,166.8,118.65,118.65,195.75,301.23,166.48,416.68,43.87,12.8,80.74,33.44,105.18,61.18,124.5-124.5,28.32-422.53-148.38-599.24-176.71-176.71-474.74-272.88-599.24-148.38Z"/>
</svg>