<?xml version="1.0" encoding="UTF-8"?>
<svg id="Layer_1" xmlns="http://www.w3.org/2000/svg" viewBox="0 0 2048 2048">
  <defs>
    <style>
      .cls-1 {
        fill: #b5b5b5;
      }

      .cls-1, .cls-2 {
        stroke-miterlimit: 10;
      }

      .cls-1, .cls-2, .cls-3 {
        stroke: #000;
        stroke-width: 32px;
      }

      .cls-2 {
        fill: #eaeaea;
      }

      .cls-3 {
        fill: #c68b2c;
        stroke-linecap: round;
        stroke-linejoin: round;
      }
    </style>
  </defs>
  <path class="cls-1" d="M1024.46,411.67c189.35,97.84,263.56,407.03,265.35,732.15,2.79,506.19,218.8,501.21,218.8,501.21l-127.8,106.85s-248.33-69.52-248.33-618.08c0-263.78-32.21-419.42-194.53-554.73"/>
  <path class="cls-1" d="M1602.96,984.69c78.52,40.57,156.58,380.7-94.35,660.33-110.25,122.86-127.8,106.85-127.8,106.85,0,0,210.15-268.19,116.83-630.97-24.52-95.31,105.32-136.22,105.32-136.22Z"/>
  <path class="cls-3" d="M812.93,1072.78L254.67,1631.05c-46.47,46.47-46.47,121.81,0,168.28,46.47,46.47,121.81,46.47,168.28,0l558.26-558.26-168.28-168.28Z"/>
  <path class="cls-3" d="M1050.55,299.04c46.47-46.47,121.81-46.47,168.28,0,46.47,46.47,46.47,121.81,0,168.28l-196.33,196.33-168.28-168.28,196.33-196.33Z"/>
  <path class="cls-3" d="M1756.73,1001.66c46.47-46.47,46.47-121.81,0-168.28-46.47-46.47-121.81-46.47-168.28,0l-198.11,198.11,168.28,168.28,198.11-198.11Z"/>
  <path class="cls-3" d="M1022.49,1031.5c-101.58-101.58-101.58-266.27,0-367.85l-168.28-168.28c-194.51,194.51-194.51,509.89,0,704.4,194.51,194.51,509.89,194.51,704.4,0l-168.28-168.28c-101.58,101.58-266.27,101.58-367.85,0Z"/>
  <rect class="cls-2" x="889.48" y="410.25" width="237.98" height="198.31" transform="translate(655.57 -563.89) rotate(45)"/>
  <rect class="cls-2" x="1425.6" y="946.37" width="237.98" height="198.31" transform="translate(1191.7 -785.96) rotate(45)"/>
</svg>