<?xml version="1.0" encoding="UTF-8"?>
<svg id="Layer_1" xmlns="http://www.w3.org/2000/svg" viewBox="0 0 2048 2048">
  <defs>
    <style>
      .cls-1 {
        fill: none;
      }

      .cls-1, .cls-2, .cls-3 {
        stroke: #000;
        stroke-width: 32px;
      }

      .cls-1, .cls-3 {
        stroke-linecap: round;
        stroke-linejoin: round;
      }

      .cls-2 {
        fill: #eaeaea;
        stroke-miterlimit: 10;
      }

      .cls-3 {
        fill: #c68b2c;
      }
    </style>
  </defs>
  <path class="cls-2" d="M822.37,508.55l-114.62-114.62c-11.39-11.39-31.78-8.34-42.86,6.4l-110.55,147.17c-1.94,2.59-4.25,4.89-6.84,6.84l-147.17,110.55c-14.74,11.07-17.79,31.47-6.4,42.86l114.62,114.62c11.39,11.39,31.78,8.34,42.86-6.4l110.55-147.17c1.94-2.59,4.25-4.89,6.84-6.84l147.17-110.55c14.74-11.07,17.79-31.47,6.4-42.86Z"/>
  <path class="cls-3" d="M710.81,396.99l294.33-193.31c23.36-15.34,50.28-22.66,76.06-20.68l784.12,60.39-279.6,44.56-429.54-8.27c-28.24-.54-57.13,9.82-80.79,28.98l-250.22,202.68-114.35-114.35Z"/>
  <path class="cls-3" d="M396.99,710.81l-193.31,294.33c-15.34,23.36-22.66,50.28-20.68,76.06l60.39,784.12,44.56-279.6-8.27-429.54c-.54-28.24,9.82-57.13,28.98-80.79l202.68-250.22-114.35-114.35Z"/>
  <polyline class="cls-1" points="1865.31 243.39 1065.21 1043.5 243.39 1865.31"/>
</svg>